PathFileType	4	(X/Y/Z)	OpenSim_Sub01_CSStiffKnee_Magnet.trc
DataRate	CameraRate	NumFrames	NumMarkers	Units	OrigDataRate	OrigDataStartFrame	OrigNumFrames
100	100	36	8	m	100	4709	5381
Frame#	Time	torso_imu_offset_imu	pelvis_imu_offset_imu	tibia_r_imu_offset_imu	femur_r_imu_offset_imu	tibia_l_imu_offset_imu	femur_l_imu_offset_imu	toes_r_imu_offset_imu	toes_l_imu_offset_imu
				X1	Y1	Z1	X2	Y2	Z2	X3	Y3	Z3	X4	Y4	Z4	X5	Y5	Z5	X6	Y6	Z6	X7	Y7	Z7	X8		Y8	Z8	

4709	47.08000000	-0.93211754	-0.03236034	0.11206597	-0.62267979	-0.03286175	-0.71259994	-0.56502298	-0.58012364	0.05340587	-0.63428246	-0.52518626	0.10721146	-0.60241334	0.52954590	0.13262431	-0.47709528	-0.08510966	0.24945908	-0.71854740	-0.14173422	-0.32630325	-0.66887511	-0.18800132	-0.40680449
4710	47.09000000	-0.93072303	-0.03049119	0.11169644	-0.62178328	-0.03345759	-0.71301286	-0.56350872	-0.58348973	0.05416465	-0.63161723	-0.53000827	0.10730264	-0.61601354	0.51276210	0.13228119	-0.47904687	-0.09895989	0.24772033	-0.71357245	-0.14468047	-0.32257167	-0.65867973	-0.19067123	-0.42107703
4711	47.10000000	-0.92991435	-0.02893994	0.11061592	-0.62300041	-0.03571589	-0.71071623	-0.56210591	-0.58887867	0.05561874	-0.62820194	-0.53623078	0.10900833	-0.62934681	0.49690710	0.13151787	-0.48213268	-0.11593254	0.24656554	-0.70786650	-0.14740767	-0.32025334	-0.65007072	-0.19349539	-0.43923817
4712	47.11000000	-0.92968852	-0.02720242	0.10938846	-0.62414282	-0.03688159	-0.70804135	-0.55895870	-0.59423331	0.05608764	-0.62378021	-0.54170539	0.10984372	-0.64106958	0.48193596	0.13035052	-0.48588862	-0.13033945	0.24422878	-0.70412292	-0.14880375	-0.31777650	-0.64081480	-0.19528877	-0.45617268
4713	47.12000000	-0.92988341	-0.02514841	0.10839922	-0.62407139	-0.03553157	-0.70658202	-0.55326286	-0.59841893	0.05448868	-0.61849700	-0.54529259	0.10846383	-0.65068124	0.46746229	0.12900752	-0.48969589	-0.13916763	0.23993469	-0.70337826	-0.14860276	-0.31412782	-0.62987737	-0.19546561	-0.46887900
4714	47.13000000	-0.92999622	-0.02348993	0.10762444	-0.62403625	-0.03327010	-0.70623558	-0.54658841	-0.60241136	0.05110090	-0.61338732	-0.54814253	0.10612031	-0.65957756	0.45235194	0.12819745	-0.49261103	-0.14547823	0.23515207	-0.70294162	-0.14844026	-0.30957874	-0.61894112	-0.19480044	-0.47918398
4715	47.14000000	-0.92958188	-0.02294785	0.10701793	-0.62541625	-0.03187690	-0.70662462	-0.54067179	-0.60736463	0.04645385	-0.60951072	-0.55155054	0.10431606	-0.66921434	0.43558077	0.12858994	-0.49380584	-0.15280714	0.23150072	-0.69992027	-0.14999484	-0.30456504	-0.60984059	-0.19420172	-0.48940664
4716	47.15000000	-0.92926692	-0.02315793	0.10687329	-0.62758202	-0.03071423	-0.70690502	-0.53565071	-0.61332424	0.04176154	-0.60693644	-0.55511272	0.10352038	-0.67901775	0.41830511	0.12978181	-0.49409515	-0.16110618	0.22902452	-0.69454467	-0.15273299	-0.29942480	-0.60218225	-0.19406085	-0.50020236
4717	47.16000000	-0.93030576	-0.02311918	0.10768136	-0.62872536	-0.02772499	-0.70596086	-0.53072046	-0.61968189	0.03863719	-0.60514959	-0.55742733	0.10359267	-0.68722075	0.40296172	0.13073990	-0.49525810	-0.16821674	0.22683906	-0.68888429	-0.15482103	-0.29443951	-0.59426200	-0.19446432	-0.51124398
4718	47.17000000	-0.93304094	-0.02254305	0.10925603	-0.62828935	-0.02228015	-0.70342627	-0.52520832	-0.62585928	0.03773230	-0.60364211	-0.55806341	0.10435297	-0.69290644	0.39075894	0.13104428	-0.49801868	-0.17278429	0.22433883	-0.68429740	-0.15543572	-0.29011065	-0.58518380	-0.19553127	-0.52196954
4719	47.18000000	-0.93576241	-0.02274895	0.10989496	-0.62854303	-0.01697806	-0.70061678	-0.51876335	-0.63136377	0.03754101	-0.60193805	-0.55878484	0.10555105	-0.69708940	0.38012709	0.13166137	-0.50071882	-0.17530939	0.22156757	-0.68050237	-0.15604588	-0.28743216	-0.57589248	-0.19746246	-0.53132143
4720	47.19000000	-0.93664587	-0.02508003	0.10797168	-0.63179536	-0.01448039	-0.69892901	-0.51116981	-0.63580677	0.03638641	-0.59967157	-0.56140716	0.10691878	-0.70098125	0.36930569	0.13354467	-0.50159491	-0.17654508	0.21871340	-0.67706796	-0.15820492	-0.28727414	-0.56754826	-0.20042050	-0.53826932
4721	47.20000000	-0.93555507	-0.02887815	0.10476091	-0.63682045	-0.01359472	-0.69824853	-0.50315832	-0.63975343	0.03383965	-0.59756854	-0.56521370	0.10810183	-0.70513017	0.35844502	0.13557776	-0.50112164	-0.17725981	0.21654877	-0.67430921	-0.16113774	-0.28854000	-0.56096417	-0.20406059	-0.54275648
4722	47.21000000	-0.93334995	-0.03230823	0.10324027	-0.64031521	-0.01086343	-0.69757106	-0.49601380	-0.64432985	0.03020979	-0.59699371	-0.56799964	0.10869650	-0.70969023	0.34882095	0.13543123	-0.50108934	-0.17822943	0.21618686	-0.67297818	-0.16270240	-0.28897813	-0.55674487	-0.20773879	-0.54530195
4723	47.22000000	-0.93097391	-0.03430138	0.10457844	-0.64069196	-0.00460284	-0.69622002	-0.49018480	-0.65028719	0.02616733	-0.59822082	-0.56875828	0.10862738	-0.71423536	0.34137511	0.13248783	-0.50228441	-0.17987215	0.21791811	-0.67313772	-0.16218524	-0.28743106	-0.55474956	-0.21086843	-0.54672328
4724	47.23000000	-0.92952776	-0.03553225	0.10585883	-0.64025052	0.00284722	-0.69427568	-0.48423761	-0.65752393	0.02316792	-0.59907088	-0.56919917	0.10855303	-0.71705638	0.33627094	0.12998558	-0.50321531	-0.18180802	0.22018723	-0.67330035	-0.16209896	-0.28521587	-0.55318013	-0.21299915	-0.54848745
4725	47.24000000	-0.92994525	-0.03685892	0.10394399	-0.64156429	0.00886801	-0.69186770	-0.47665650	-0.66578278	0.02250184	-0.59734502	-0.57116364	0.10910219	-0.71655343	0.33357256	0.13127997	-0.50228945	-0.18359055	0.22138374	-0.67201749	-0.16503272	-0.28382976	-0.55027897	-0.21382199	-0.55187855
4726	47.25000000	-0.93121547	-0.03859758	0.09912350	-0.64460096	0.01358134	-0.68857814	-0.46770779	-0.67438975	0.02265522	-0.59406521	-0.57405923	0.10957090	-0.71404773	0.33340603	0.13555374	-0.50005318	-0.18520120	0.22190552	-0.67040800	-0.16985877	-0.28317237	-0.54702180	-0.21429746	-0.55538552
4727	47.26000000	-0.93118670	-0.04074434	0.09370473	-0.64779481	0.01872297	-0.68366960	-0.45870606	-0.68242583	0.02046752	-0.59214614	-0.57586329	0.10847305	-0.71257519	0.33593281	0.13953465	-0.49831069	-0.18687321	0.22333068	-0.67109995	-0.17326456	-0.28220266	-0.54599299	-0.21612973	-0.55585345
4728	47.27000000	-0.92906846	-0.04320379	0.08918217	-0.65037181	0.02543817	-0.67716378	-0.45031740	-0.68914207	0.01435862	-0.59295368	-0.57572722	0.10518525	-0.71337952	0.34106787	0.14133565	-0.49803164	-0.18869887	0.22627289	-0.67559127	-0.17360914	-0.28022888	-0.54898756	-0.21991763	-0.55119491
4729	47.28000000	-0.92714042	-0.04568550	0.08517831	-0.65336854	0.03350814	-0.67078538	-0.44173074	-0.69417615	0.00632235	-0.59434325	-0.57546333	0.10103159	-0.71365611	0.34817535	0.14223133	-0.49828728	-0.19044867	0.22915992	-0.68281467	-0.17304435	-0.27736584	-0.55599281	-0.22377229	-0.54175172
4730	47.29000000	-0.92782126	-0.04793148	0.08110373	-0.65782328	0.04251738	-0.66633235	-0.43201400	-0.69741840	-0.00129847	-0.59393800	-0.57696513	0.09748354	-0.71042812	0.35649736	0.14383574	-0.49793902	-0.19181219	0.23036270	-0.69141006	-0.17401860	-0.27382310	-0.56665973	-0.22552375	-0.52829180
4731	47.30000000	-0.93067673	-0.05029054	0.07679602	-0.66226261	0.05192535	-0.66398008	-0.42104895	-0.70082768	-0.00755014	-0.59186639	-0.57924771	0.09481356	-0.70459568	0.36478622	0.14685138	-0.49633322	-0.19209322	0.23071882	-0.70057760	-0.17674431	-0.26966161	-0.57969241	-0.22357511	-0.51258834
4732	47.31000000	-0.93359262	-0.05346735	0.07234617	-0.66374069	0.06111770	-0.66294566	-0.40919672	-0.70757263	-0.01230084	-0.58973336	-0.57963581	0.09258639	-0.69933828	0.37150976	0.15144002	-0.49310637	-0.19037226	0.23251519	-0.70984997	-0.18011565	-0.26485264	-0.59323857	-0.21667640	-0.49700353
4733	47.32000000	-0.93510473	-0.05770597	0.06816046	-0.66127912	0.06948243	-0.66220858	-0.39666977	-0.71860902	-0.01593321	-0.58882468	-0.57707774	0.09027142	-0.69620072	0.37607913	0.15713164	-0.48874819	-0.18663689	0.23680221	-0.71918521	-0.18320892	-0.25894483	-0.60591681	-0.20545388	-0.48303908
4734	47.33000000	-0.93524764	-0.06221249	0.06534134	-0.65833186	0.07641484	-0.66024574	-0.38333491	-0.72992016	-0.01995401	-0.58967149	-0.57419314	0.08714575	-0.69301460	0.38001846	0.16206215	-0.48564387	-0.18290509	0.24182968	-0.72948084	-0.18554468	-0.25054634	-0.61741241	-0.19471023	-0.47025987
4735	47.34000000	-0.93425949	-0.06612882	0.06482392	-0.65856954	0.08138495	-0.65575722	-0.36903185	-0.73729909	-0.02588737	-0.59261056	-0.57372140	0.08260878	-0.68739917	0.38504608	0.16449395	-0.48607587	-0.18125305	0.24564478	-0.74162924	-0.18680193	-0.23815586	-0.62758149	-0.18927784	-0.45792506
4736	47.35000000	-0.93238659	-0.06938423	0.06484277	-0.66170829	0.08462407	-0.65044893	-0.35380352	-0.74152024	-0.03386611	-0.59702595	-0.57450934	0.07759119	-0.67996856	0.39193353	0.16594271	-0.48861865	-0.18152219	0.24811533	-0.75515692	-0.18767485	-0.22045574	-0.63655393	-0.18846192	-0.44484327
4737	47.36000000	-0.92988157	-0.07237129	0.06205026	-0.66513715	0.08681208	-0.64778837	-0.33781363	-0.74628867	-0.04320175	-0.60174194	-0.57311597	0.07391999	-0.67309794	0.40088995	0.16983451	-0.48966763	-0.18223900	0.25018109	-0.76878663	-0.18945434	-0.19624128	-0.64461987	-0.18831500	-0.42956706
4738	47.37000000	-0.92731713	-0.07524103	0.05539582	-0.66745876	0.08852440	-0.64878014	-0.32141699	-0.75362385	-0.05307726	-0.60604281	-0.56788096	0.07193804	-0.66797406	0.41131502	0.17774875	-0.48739290	-0.18266099	0.25233814	-0.78165076	-0.19299108	-0.16527960	-0.65181100	-0.18654202	-0.41269508
4739	47.38000000	-0.92598000	-0.07759203	0.04899982	-0.67005065	0.09009044	-0.64888275	-0.30539146	-0.76169964	-0.06241255	-0.61025545	-0.56118321	0.06865086	-0.66308112	0.42081832	0.18708929	-0.48398712	-0.18371453	0.25406162	-0.79381891	-0.19813627	-0.12950313	-0.65757769	-0.18462874	-0.39939892
4740	47.39000000	-0.92702601	-0.07901315	0.04717296	-0.67441790	0.09186470	-0.64346817	-0.29046332	-0.76834714	-0.07018284	-0.61486759	-0.55566991	0.06106308	-0.65673973	0.42707388	0.19488096	-0.48194537	-0.18630257	0.25481268	-0.80531213	-0.20456982	-0.09108471	-0.66139544	-0.18438024	-0.39468506
4741	47.40000000	-0.92926217	-0.07976393	0.04896809	-0.67950599	0.09480433	-0.63476247	-0.27623615	-0.77323041	-0.07630188	-0.62057096	-0.55111606	0.05083215	-0.64935643	0.43092090	0.20006798	-0.48126589	-0.18875476	0.25533392	-0.81434122	-0.21159981	-0.05165496	-0.66381140	-0.18561670	-0.39546842
4742	47.41000000	-0.93011653	-0.08049899	0.05034339	-0.68275623	0.10021508	-0.62902046	-0.26165301	-0.77709401	-0.08123507	-0.62817299	-0.54560618	0.04235003	-0.64256571	0.43506022	0.20273015	-0.48047633	-0.18788937	0.25712047	-0.81805856	-0.21831706	-0.01252229	-0.66600258	-0.18698910	-0.39390885
4743	47.42000000	-0.92842279	-0.08174198	0.04874542	-0.68283920	0.10793880	-0.62940289	-0.24604648	-0.78052512	-0.08502000	-0.63749175	-0.53803314	0.03784683	-0.63745906	0.44100971	0.20364687	-0.47860136	-0.18193071	0.26095192	-0.81561724	-0.22425417	0.02549725	-0.66866071	-0.18751858	-0.38604430
4744	47.43000000	-0.92619082	-0.08371298	0.04503097	-0.68121167	0.11454086	-0.63205078	-0.22963730	-0.78372851	-0.08672379	-0.64613446	-0.52914231	0.03465001	-0.63388088	0.44759407	0.20512579	-0.47581702	-0.17228385	0.26598960	-0.81066503	-0.22993582	0.06267696	-0.67137649	-0.18708588	-0.37670283
